<?xml version="1.0" standalone="no"?>
<!DOCTYPE svg PUBLIC "-//W3C//DTD SVG 20010904//EN"
 "http://www.w3.org/TR/2001/REC-SVG-20010904/DTD/svg10.dtd">
<svg version="1.0" xmlns="http://www.w3.org/2000/svg"
 width="300.000000pt" height="300.000000pt" viewBox="0 0 300.000000 300.000000"
 preserveAspectRatio="xMidYMid meet">
<metadata>
Created by potrace 1.10, written by Peter Selinger 2001-2011
</metadata>
<g transform="translate(0.000000,300.000000) scale(0.100000,-0.100000)"
fill="#000000" stroke="none">
<path d="M1359 2656 c-3 -3 -36 -10 -74 -16 -227 -36 -507 -191 -654 -364 -24
-28 -47 -53 -51 -56 -24 -17 -146 -224 -163 -275 -3 -11 -13 -38 -22 -60 -42
-112 -59 -217 -58 -370 1 -161 17 -255 68 -390 99 -264 311 -496 570 -624 132
-65 242 -98 401 -118 124 -16 139 -16 265 1 281 36 498 138 692 325 55 53 159
180 183 226 6 11 22 40 36 65 58 104 105 259 119 392 37 351 -78 673 -331 926
-175 175 -369 273 -658 331 -51 11 -314 16 -323 7z m261 -16 c119 -16 145 -21
185 -32 22 -6 48 -13 59 -15 26 -5 151 -60 216 -96 105 -57 165 -101 237 -173
62 -62 183 -213 183 -228 0 -3 11 -21 24 -41 51 -74 122 -291 133 -405 27
-285 -33 -527 -189 -759 -67 -98 -227 -256 -311 -306 -37 -22 -84 -50 -105
-62 -41 -25 -154 -71 -211 -85 -20 -5 -54 -14 -76 -19 -73 -19 -119 -23 -255
-23 -167 1 -225 8 -332 39 -114 34 -308 134 -398 206 -77 61 -167 156 -232
245 -68 92 -155 287 -172 384 -33 182 -38 247 -26 340 32 264 121 461 303 672
98 113 290 240 438 288 139 45 155 50 194 55 22 3 65 9 95 14 73 11 161 12
240 1z"/>
<path d="M980 2400 c-101 -4 -120 -8 -160 -32 -56 -33 -92 -70 -122 -128 l-23
-45 -3 -649 c-1 -419 1 -662 8 -686 16 -58 70 -131 124 -168 l48 -32 650 0
c620 0 650 1 686 19 48 25 103 84 133 141 l24 45 0 665 c0 622 -1 667 -18 701
-29 58 -80 112 -133 141 l-49 26 -525 4 c-289 2 -577 1 -640 -2z m11 -48 c-16
-23 -26 -28 -50 -24 -22 3 -31 10 -31 22 0 20 17 27 68 29 l33 1 -20 -28z
m300 -1 c29 -29 29 -30 29 -150 l0 -121 125 0 c120 0 127 -1 150 -25 23 -22
25 -32 25 -119 0 -52 -3 -102 -6 -111 -13 -33 -59 -45 -179 -45 l-115 0 0
-121 0 -121 -30 -30 c-30 -30 -31 -30 -130 -26 -141 4 -145 9 -146 171 l-2
122 -127 5 c-124 5 -127 6 -151 33 -22 25 -24 37 -24 123 0 87 2 97 24 119 23
23 28 23 134 19 61 -3 119 -1 128 4 13 7 16 29 17 131 2 121 2 123 30 147 25
22 37 24 123 24 92 0 97 -1 125 -29z m793 23 c38 -6 46 -10 40 -23 -4 -9 -13
-51 -21 -94 -25 -137 -1 -124 -230 -131 -109 -3 -216 -10 -238 -15 -39 -9 -95
4 -108 25 -3 5 3 46 12 91 l16 83 32 0 c17 0 35 5 38 10 9 15 -44 12 -121 -6
-37 -8 -78 -13 -90 -10 -14 4 -24 1 -28 -9 -9 -25 -36 -18 -36 10 0 14 -7 37
-16 50 l-16 25 359 0 c198 0 381 -3 407 -6z m-1192 -131 c2 -65 2 -120 1 -122
-2 -3 -30 -7 -62 -9 -56 -4 -59 -3 -63 19 -2 16 -11 25 -25 27 -13 2 -23 -1
-23 -7 0 -6 6 -8 14 -5 16 6 30 -22 15 -32 -5 -3 -16 -1 -24 6 -11 9 -12 7 -8
-8 5 -19 -13 -40 -24 -28 -11 10 26 126 54 167 26 39 108 108 130 109 8 0 12
-37 15 -117z m1305 85 c43 -32 80 -79 103 -129 21 -48 29 -100 9 -66 -13 23
-36 22 -49 -4 -9 -15 -8 -24 1 -35 15 -18 38 -18 45 1 4 8 9 15 13 15 3 0 4
-273 1 -607 -6 -688 -1 -647 -88 -736 -43 -44 -146 -97 -160 -83 -3 3 -6 32
-8 63 -22 507 -26 652 -21 838 4 171 10 242 27 320 12 55 26 119 31 143 5 24
12 48 15 54 4 6 6 34 5 63 0 29 6 72 14 95 8 23 15 53 15 66 0 30 8 30 47 2z
m-1227 -118 l0 -100 -28 0 -29 0 8 54 c4 30 6 75 6 100 -2 42 0 46 21 46 21 0
22 -3 22 -100z m566 73 c-3 -10 -12 -47 -21 -82 -15 -60 -15 -64 2 -77 16 -12
9 -13 -52 -14 -69 0 -70 1 -92 35 -15 23 -23 50 -23 80 0 44 1 45 33 46 17 0
55 7 82 14 70 18 77 18 71 -2z m537 -208 c0 -11 -16 -90 -34 -176 l-33 -156
-201 -7 c-110 -3 -244 -9 -297 -12 -83 -6 -98 -4 -98 8 0 12 16 16 81 17 144
3 174 39 167 202 -3 74 -8 102 -21 116 -16 19 -15 19 41 16 31 -2 100 0 152 5
52 4 129 8 170 8 69 -1 75 -3 73 -21z m-1349 -310 c11 -8 28 -15 39 -15 13 0
17 -5 14 -17 -3 -10 -8 -40 -12 -68 -4 -27 -11 -58 -17 -68 -14 -27 -5 -30 44
-13 40 14 41 15 13 16 -26 1 -27 3 -10 10 35 15 55 11 55 -11 0 -11 5 -17 10
-14 6 3 10 14 10 24 0 13 9 20 33 24 17 2 33 4 34 3 1 0 5 -102 9 -226 4 -152
3 -261 -5 -335 -24 -218 -43 -380 -46 -383 -2 -2 -24 8 -49 23 -49 29 -97 78
-121 125 -15 29 -15 30 6 27 33 -3 47 27 25 52 -23 25 -18 82 14 191 12 39 20
76 18 82 -7 19 -58 -186 -58 -229 0 -24 -6 -46 -15 -53 -13 -11 -15 35 -15
406 0 231 -3 429 -6 442 -7 25 3 28 30 7z m126 -23 c0 -4 -5 -13 -12 -20 -16
-16 13 -47 36 -39 18 7 22 42 5 52 -6 4 -10 1 -8 -6 4 -34 0 -42 -16 -29 -14
12 -14 15 1 31 22 24 63 24 92 0 17 -15 22 -30 22 -63 0 -29 -3 -38 -9 -29 -9
14 -63 12 -149 -5 l-33 -7 6 39 c7 40 13 77 14 82 2 6 51 1 51 -6z m542 -64
c-2 -40 -5 -74 -7 -76 -1 -1 -10 0 -19 4 -13 5 -16 20 -16 75 0 65 1 69 23 69
22 0 23 -3 19 -72z m618 -222 l0 -255 -516 0 -515 -1 3 135 c2 97 0 137 -10
147 -13 13 -17 48 -4 48 4 0 16 -13 27 -30 11 -16 33 -34 49 -40 46 -16 212
-13 246 5 35 18 60 62 60 104 0 29 2 30 30 25 l30 -6 0 56 0 56 213 3 c116 1
251 3 300 5 l87 2 0 -254z m-744 -299 c-13 -9 -19 -31 -22 -81 -5 -61 -4 -68
11 -62 9 3 26 6 37 6 19 0 20 4 14 53 -4 28 -10 62 -13 75 l-5 22 366 0 366 0
2 -105 c1 -58 2 -113 2 -122 1 -17 -22 -19 -284 -25 -157 -4 -399 -9 -538 -11
l-253 -4 5 21 c2 11 8 68 12 126 4 58 12 108 18 112 6 4 76 8 155 8 121 0 142
-2 127 -13z m-512 -268 c-8 -14 -34 -11 -34 4 0 8 3 17 7 20 9 9 34 -13 27
-24z m1276 -58 c0 -32 3 -79 6 -104 l6 -45 -561 -1 c-308 0 -561 3 -561 7 1 4
9 45 18 92 l18 85 433 7 c238 3 435 9 439 12 3 3 50 6 104 6 l98 0 0 -59z"/>
<path d="M1117 2242 c-20 -21 -37 -43 -37 -50 0 -21 25 -13 55 18 l29 30 31
-30 c33 -32 55 -39 55 -17 0 15 -71 87 -86 87 -5 0 -27 -17 -47 -38z"/>
<path d="M849 1974 l-43 -44 41 -42 c30 -29 46 -39 59 -34 16 6 13 11 -18 43
l-36 36 29 24 c29 24 37 47 21 57 -5 3 -28 -15 -53 -40z"/>
<path d="M1424 2006 c-4 -11 5 -26 27 -45 l33 -29 -32 -27 c-33 -27 -42 -55
-19 -55 15 0 87 72 86 85 0 6 -21 27 -45 49 -36 32 -45 36 -50 22z"/>
<path d="M1105 1985 c-14 -13 -25 -34 -25 -45 0 -29 26 -76 45 -84 87 -33 160
57 104 128 -28 36 -89 37 -124 1z m100 -25 c15 -17 16 -24 7 -45 -15 -32 -37
-41 -68 -27 -17 8 -24 20 -24 40 0 52 50 71 85 32z"/>
<path d="M1081 1668 c0 -7 21 -31 45 -52 l45 -39 39 38 c40 39 51 65 28 65 -7
0 -26 -14 -44 -31 l-31 -30 -26 30 c-26 31 -58 42 -56 19z"/>
<path d="M1670 2326 c0 -8 11 -28 25 -44 13 -16 22 -32 18 -36 -3 -3 -1 -6 5
-6 18 0 15 14 -9 44 -11 15 -18 33 -15 41 3 9 0 15 -9 15 -8 0 -15 -6 -15 -14z"/>
<path d="M1940 2323 c0 -6 -10 -13 -22 -15 -13 -2 12 -8 54 -12 77 -8 99 -5
97 17 0 9 -2 9 -5 0 -6 -15 -105 -5 -116 11 -6 8 -8 8 -8 -1z"/>
<path d="M1775 2281 c6 -5 28 -12 50 -15 27 -4 33 -3 20 2 -35 16 -81 24 -70
13z"/>
<path d="M1865 2219 c-26 -6 -23 -7 19 -8 27 0 46 2 42 6 -9 10 -26 10 -61 2z"/>
<path d="M807 2264 c-4 -4 -7 -16 -7 -27 0 -14 -5 -17 -16 -13 -14 6 -15 4 -4
-9 7 -9 16 -12 19 -8 3 4 17 8 31 8 20 0 25 5 25 25 0 18 -6 26 -20 28 -12 2
-24 0 -28 -4z m37 -12 c2 -4 1 -14 -4 -22 -7 -11 -12 -12 -21 -3 -6 6 -8 16
-5 22 8 13 23 14 30 3z"/>
<path d="M2172 2228 c-18 -18 -15 -36 10 -49 18 -9 24 -8 34 6 25 34 -15 72
-44 43z"/>
<path d="M2178 2053 c-40 -55 -58 -87 -58 -103 0 -7 23 22 51 64 57 84 62 115
7 39z"/>
<path d="M2189 1808 c-7 -12 -14 -68 -15 -123 l-3 -100 10 90 c5 50 13 103 19
119 13 37 6 46 -11 14z"/>
<path d="M2093 1700 c0 -36 2 -50 4 -32 2 17 2 47 0 65 -2 17 -4 3 -4 -33z"/>
<path d="M2263 1635 c0 -38 2 -53 4 -32 2 20 2 52 0 70 -2 17 -4 1 -4 -38z"/>
<path d="M2086 1484 c-10 -25 -6 -48 10 -69 16 -19 16 -19 8 5 -4 14 -7 37 -6
53 1 30 -3 35 -12 11z"/>
<path d="M2132 1215 c0 -44 4 -107 8 -140 6 -52 7 -46 7 50 1 61 -3 124 -7
140 -5 21 -8 6 -8 -50z"/>
<path d="M2102 1003 c-1 -73 1 -133 6 -133 4 0 6 39 4 87 -5 163 -8 179 -10
46z"/>
<path d="M2242 941 c-21 -13 -11 -55 15 -59 26 -4 41 31 23 53 -14 17 -20 18
-38 6z"/>
<path d="M2122 841 c-21 -13 -11 -55 14 -59 25 -3 37 25 22 52 -10 18 -17 19
-36 7z"/>
<path d="M1417 2233 c-12 -11 -8 -40 7 -52 11 -9 18 -8 30 4 19 20 20 27 4 43
-13 13 -31 16 -41 5z"/>
<path d="M1810 1913 c-26 -18 -40 -33 -40 -45 0 -4 10 3 23 15 13 12 32 27 43
34 10 6 14 12 9 12 -6 1 -22 -7 -35 -16z"/>
<path d="M853 1510 c0 -36 2 -50 4 -32 2 17 2 47 0 65 -2 17 -4 3 -4 -33z"/>
<path d="M804 816 c-10 -26 4 -48 28 -44 17 2 23 10 23 28 0 18 -6 26 -23 28
-13 2 -25 -3 -28 -12z"/>
<path d="M1610 1639 c154 -18 168 -19 214 -4 33 11 65 15 95 10 33 -4 42 -3
31 4 -21 15 -90 13 -136 -2 -32 -11 -60 -11 -159 -1 -66 7 -140 13 -165 12
-25 0 29 -9 120 -19z"/>
<path d="M1923 1430 c-18 -4 -72 -8 -120 -9 -95 -2 -113 -11 -113 -58 0 -16 4
-21 15 -17 12 5 14 1 11 -17 -3 -13 -5 -34 -5 -46 -1 -21 -6 -23 -61 -23 l-60
0 0 75 0 75 33 0 34 0 -5 -57 c-5 -55 -4 -56 19 -50 13 4 28 7 32 7 5 0 6 4 2
10 -3 5 -12 7 -20 4 -10 -4 -15 6 -17 43 l-3 48 -120 0 -120 0 -3 -82 -3 -83
193 3 193 2 5 28 5 29 23 -31 c18 -24 30 -31 57 -31 31 0 37 5 60 50 14 27 25
62 25 77 -1 22 -5 16 -21 -27 -11 -30 -23 -63 -26 -72 -4 -12 -16 -18 -38 -18
-29 0 -35 5 -49 40 -9 22 -16 56 -16 75 0 32 2 35 31 35 30 0 31 -2 25 -32 -3
-18 -1 -40 4 -48 7 -11 10 -2 10 33 0 45 1 47 29 47 16 0 31 6 35 15 6 16 6
16 -41 5z m-431 -45 c-3 -18 0 -25 12 -25 10 0 16 9 16 25 0 21 5 25 30 25
l30 0 0 -75 0 -75 -30 0 c-25 0 -30 4 -30 25 0 16 -6 25 -16 25 -12 0 -15 -7
-12 -25 5 -23 2 -25 -28 -25 l-34 0 0 75 0 75 34 0 c30 0 33 -2 28 -25z m328
0 c0 -16 -6 -25 -15 -25 -13 0 -15 -9 -9 -50 l7 -50 -35 0 -35 0 5 50 c4 41 2
50 -12 50 -10 0 -16 9 -16 25 0 24 3 25 55 25 52 0 55 -1 55 -25z"/>
<path d="M1085 1381 c-8 -16 -27 -39 -41 -50 l-27 -21 37 -15 c28 -12 36 -21
36 -41 0 -32 22 -27 30 7 4 17 14 25 32 27 l27 3 -32 60 c-17 32 -35 59 -39
59 -4 0 -14 -13 -23 -29z m41 -47 c4 -17 2 -29 -6 -34 -31 -19 -55 21 -28 48
18 18 27 15 34 -14z"/>
<path d="M1242 1353 c-26 -36 -31 -48 -20 -54 21 -14 25 -11 31 20 8 39 35 48
47 15 12 -30 6 -44 -19 -44 -10 0 -21 -9 -24 -19 -6 -24 0 -31 25 -31 13 0 18
7 18 25 0 22 4 25 35 25 19 0 35 2 35 5 0 3 -16 19 -35 36 -19 17 -37 39 -40
50 -9 27 -16 24 -53 -28z"/>
<path d="M1077 1098 c-3 -24 -9 -53 -13 -66 -6 -22 -4 -23 27 -20 25 2 33 7
30 18 -3 8 -7 36 -9 63 -5 60 -27 63 -35 5z"/>
<path d="M1883 1127 c-24 -6 -43 -16 -43 -23 0 -10 7 -9 31 3 19 10 44 13 66
10 38 -7 39 -5 8 10 -13 6 -35 6 -62 0z"/>
<path d="M1500 1121 c85 -5 193 -16 238 -25 104 -22 120 -14 20 9 -51 12 -125
18 -243 20 l-170 3 155 -7z"/>
<path d="M1777 1053 c18 -2 50 -2 70 0 21 2 7 4 -32 4 -38 0 -55 -2 -38 -4z"/>
<path d="M1340 990 c-8 -5 -84 -8 -167 -5 -144 3 -153 2 -153 -15 0 -10 -3
-25 -6 -33 -5 -14 0 -14 48 -1 60 16 224 19 262 5 22 -9 25 -7 31 20 8 36 5
41 -15 29z m-235 -30 c-44 -11 -65 -11 -65 0 0 6 21 9 48 9 42 -1 44 -2 17 -9z"/>
<path d="M1021 798 c24 -10 267 -4 277 7 3 3 -63 5 -148 4 -108 -2 -147 -5
-129 -11z"/>
<path d="M1605 771 c77 -14 195 -19 195 -10 0 5 -17 9 -37 9 -21 0 -76 2 -123
5 -70 4 -76 3 -35 -4z"/>
</g>
</svg>
